<svg width="330" height="126" viewBox="0 0 330 126" fill="none" xmlns="http://www.w3.org/2000/svg">
<path d="M61.6802 100.645H0.825195V73.17L61.6802 0.833008H90.7952V74.728H105.885V100.645H90.7952V123.117H61.6802V100.645ZM61.6802 74.728V36.89L29.5242 74.728H61.6802Z" fill="#EFF1C5"/>
<path d="M116.302 62.508C116.302 39.654 120.415 23.662 128.645 14.53C136.874 5.39901 149.407 0.833008 166.249 0.833008C174.34 0.833008 180.984 1.83201 186.178 3.82701C191.372 5.82301 195.61 8.42001 198.89 11.618C202.17 14.817 204.754 18.179 206.64 21.706C208.527 25.232 210.044 29.347 211.192 34.05C213.433 43.017 214.554 52.367 214.554 62.099C214.554 83.914 210.863 99.881 203.482 109.995C196.1 120.111 183.388 125.167 165.345 125.167C155.229 125.167 147.055 123.553 140.823 120.328C134.589 117.103 129.476 112.373 125.486 106.14C122.586 101.712 120.331 95.656 118.72 87.974C117.107 80.292 116.302 71.804 116.302 62.508ZM149.436 62.59C149.436 77.9 150.789 88.357 153.495 93.962C156.202 99.566 160.125 102.368 165.264 102.368C168.654 102.368 171.593 101.179 174.081 98.8C176.569 96.422 178.4 92.664 179.577 87.524C180.752 82.385 181.34 74.374 181.34 63.493C181.34 47.529 179.987 36.798 177.281 31.303C174.574 25.807 170.515 23.06 165.101 23.06C159.578 23.06 155.587 25.863 153.126 31.467C150.666 37.071 149.436 47.446 149.436 62.59Z" fill="#EFF1C5"/>
<path d="M285.744 100.645H224.889V73.17L285.744 0.833008H314.859V74.728H329.949V100.645H314.859V123.117H285.744V100.645ZM285.744 74.728V36.89L253.589 74.728H285.744Z" fill="#EFF1C5"/>
</svg>
