<svg width="217" height="289" viewBox="0 0 217 289" fill="none" xmlns="http://www.w3.org/2000/svg">
<path opacity="0.2" d="M187.097 107.83C160.207 126 125.397 149.96 115.787 207.64H113.737C123.087 150.66 156.627 126.07 183.527 107.83H187.097Z" fill="#21212E"/>
<path d="M48.0188 288.267C31.0488 288.268 14.2098 280.605 6.03284 268.081C0.979836 260.342 -4.88717 244.131 12.5878 222.503L14.1438 223.761C1.78183 239.06 -0.504176 254.411 7.70782 266.988C17.7018 282.297 41.3038 289.994 61.4378 284.516C82.0658 278.903 94.5898 260.959 95.7988 235.288C99.9338 147.481 146.583 120.433 180.645 100.683C201.807 88.413 217.097 79.547 213.736 60.845C213.27 58.25 212.235 56.457 210.573 55.364C206.22 52.496 197.72 54.478 187.879 56.772C168.573 61.269 142.133 67.429 126.382 40.638L128.106 39.624C143.112 65.147 167.683 59.424 187.425 54.823C197.715 52.427 206.602 50.356 211.673 53.692C213.818 55.104 215.137 57.328 215.705 60.491C219.314 80.573 202.692 90.211 181.648 102.413C147.984 121.932 101.88 148.664 97.7958 235.381C96.5438 261.977 83.4828 280.589 61.9618 286.445C57.4268 287.679 52.7158 288.266 48.0188 288.267Z" fill="#EFF1C5"/>
<path opacity="0.2" d="M48.0188 288.267C31.0488 288.268 14.2098 280.605 6.03284 268.081C0.979836 260.342 -4.88717 244.131 12.5878 222.503L14.1438 223.761C1.78183 239.06 -0.504176 254.411 7.70782 266.988C17.7018 282.297 41.3038 289.994 61.4378 284.516C82.0658 278.903 94.5898 260.959 95.7988 235.288C99.9338 147.481 146.583 120.433 180.645 100.683C201.807 88.413 217.097 79.547 213.736 60.845C213.27 58.25 212.235 56.457 210.573 55.364C206.22 52.496 197.72 54.478 187.879 56.772C168.573 61.269 142.133 67.429 126.382 40.638L128.106 39.624C143.112 65.147 167.683 59.424 187.425 54.823C197.715 52.427 206.602 50.356 211.673 53.692C213.818 55.104 215.137 57.328 215.705 60.491C219.314 80.573 202.692 90.211 181.648 102.413C147.984 121.932 101.88 148.664 97.7958 235.381C96.5438 261.977 83.4828 280.589 61.9618 286.445C57.4268 287.679 52.7158 288.266 48.0188 288.267Z" fill="white"/>
<path d="M105.758 16.9491C112.613 16.8241 119.34 19.0831 119.34 19.0831C119.34 19.0831 130.305 37.8541 131.642 42.1501C131.181 46.3901 124.027 53.3411 124.027 53.3411L105.758 16.9491Z" fill="#EFF1C5"/>
<path opacity="0.3" d="M105.758 16.9491C112.613 16.8241 119.34 19.0831 119.34 19.0831C119.34 19.0831 130.305 37.8541 131.642 42.1501C131.181 46.3901 124.027 53.3411 124.027 53.3411L105.758 16.9491Z" fill="white"/>
<path d="M138.339 108.133C134.203 102.885 130.142 97.5392 126.78 91.7482C125.94 90.3012 125.144 88.8271 124.391 87.3331C123.963 86.4841 123.549 85.6282 123.147 84.7662C122.796 84.0132 122.021 82.9042 121.943 82.0822C120.742 69.4102 125.08 60.0822 120.915 49.9102L104.444 56.3472C104.444 56.3472 105.845 74.4692 109.042 85.3102C111.026 92.0361 115.517 97.8591 119.845 103.247C121.199 104.933 122.504 106.657 123.855 108.345C125.134 109.943 126.567 111.409 127.849 112.999C129.796 115.412 130.444 117.715 128.964 120.56C128.885 120.712 128.802 120.863 128.717 121.013C128.297 121.754 130.263 122.594 131.498 121.034C133.54 118.453 133.219 118.612 134.96 116.411C136.017 115.075 137.231 113.632 138.279 112.378C139.303 111.155 139.326 109.385 138.339 108.133Z" fill="#EFF1C5"/>
<path opacity="0.7" d="M138.339 108.133C134.203 102.885 130.142 97.5392 126.78 91.7482C125.94 90.3012 125.144 88.8271 124.391 87.3331C123.963 86.4841 123.549 85.6282 123.147 84.7662C122.796 84.0132 122.021 82.9042 121.943 82.0822C120.742 69.4102 125.08 60.0822 120.915 49.9102L104.444 56.3472C104.444 56.3472 105.845 74.4692 109.042 85.3102C111.026 92.0361 115.517 97.8591 119.845 103.247C121.199 104.933 122.504 106.657 123.855 108.345C125.134 109.943 126.567 111.409 127.849 112.999C129.796 115.412 130.444 117.715 128.964 120.56C128.885 120.712 128.802 120.863 128.717 121.013C128.297 121.754 130.263 122.594 131.498 121.034C133.54 118.453 133.219 118.612 134.96 116.411C136.017 115.075 137.231 113.632 138.279 112.378C139.303 111.155 139.326 109.385 138.339 108.133Z" fill="white"/>
<path opacity="0.3" d="M134.312 102.918C132.107 105.583 127.624 109.04 125.648 110.441C126.078 110.92 126.504 111.409 126.931 111.898C130.999 109.241 134.215 105.794 135.435 104.394C135.058 103.909 134.685 103.413 134.312 102.918Z" fill="#EFF1C5"/>
<path opacity="0.3" d="M138.335 108.135C138.297 108.083 138.257 108.041 138.219 107.99C137.525 108.713 137.036 109.866 136.954 111.16C136.888 112.054 137.038 112.872 137.331 113.511C137.664 113.125 137.975 112.743 138.28 112.38C139.308 111.156 139.322 109.387 138.335 108.135Z" fill="#EFF1C5"/>
<path d="M101.842 28.9513C100.119 31.4573 98.0879 33.9273 95.4669 36.1453C94.1659 37.2603 92.6808 38.2693 91.0498 39.1253C90.2268 39.5453 89.3619 39.9093 88.4669 40.2103L87.7918 40.4273L87.5738 40.4953C87.4158 40.5433 87.2568 40.5863 87.0968 40.6243C86.7948 40.6923 86.4918 40.7383 86.2238 40.7603C85.1408 40.8423 84.3559 40.6883 83.7089 40.5273C82.4319 40.1793 81.5788 39.7143 80.7718 39.2633C79.9768 38.8043 79.2789 38.3343 78.6179 37.8493C77.3159 36.8583 76.1379 35.8633 75.0399 34.8013C72.8299 32.6913 70.8698 30.5033 69.0498 28.0663C68.2198 26.9553 68.4478 25.3823 69.5588 24.5533C70.4158 23.9123 71.5489 23.9023 72.4019 24.4413L72.4778 24.4903C74.8378 25.9883 77.2188 27.5683 79.5418 28.9823C80.7148 29.6743 81.8608 30.3703 82.9878 30.9123C83.5418 31.1923 84.0849 31.4473 84.5749 31.6283C85.0519 31.8143 85.5279 31.9203 85.6519 31.8953C85.7039 31.8923 85.6418 31.8213 85.2738 31.8343C85.1848 31.8393 85.0588 31.8513 84.9308 31.8793C84.8568 31.8933 84.7849 31.9123 84.7129 31.9353C84.6439 31.9583 84.7418 31.9163 84.7478 31.9103L85.0789 31.7413C85.5189 31.5173 85.9408 31.2373 86.3688 30.9523C87.2248 30.3733 88.0399 29.6383 88.8719 28.8323C90.5179 27.1973 92.1018 25.1623 93.7738 23.0463L93.7958 23.0173C95.5078 20.8493 98.6538 20.4803 100.822 22.1923C102.898 23.8313 103.315 26.8003 101.842 28.9513Z" fill="#EFF1C5"/>
<path opacity="0.7" d="M101.842 28.9513C100.119 31.4573 98.0879 33.9273 95.4669 36.1453C94.1659 37.2603 92.6808 38.2693 91.0498 39.1253C90.2268 39.5453 89.3619 39.9093 88.4669 40.2103L87.7918 40.4273L87.5738 40.4953C87.4158 40.5433 87.2568 40.5863 87.0968 40.6243C86.7948 40.6923 86.4918 40.7383 86.2238 40.7603C85.1408 40.8423 84.3559 40.6883 83.7089 40.5273C82.4319 40.1793 81.5788 39.7143 80.7718 39.2633C79.9768 38.8043 79.2789 38.3343 78.6179 37.8493C77.3159 36.8583 76.1379 35.8633 75.0399 34.8013C72.8299 32.6913 70.8698 30.5033 69.0498 28.0663C68.2198 26.9553 68.4478 25.3823 69.5588 24.5533C70.4158 23.9123 71.5489 23.9023 72.4019 24.4413L72.4778 24.4903C74.8378 25.9883 77.2188 27.5683 79.5418 28.9823C80.7148 29.6743 81.8608 30.3703 82.9878 30.9123C83.5418 31.1923 84.0849 31.4473 84.5749 31.6283C85.0519 31.8143 85.5279 31.9203 85.6519 31.8953C85.7039 31.8923 85.6418 31.8213 85.2738 31.8343C85.1848 31.8393 85.0588 31.8513 84.9308 31.8793C84.8568 31.8933 84.7849 31.9123 84.7129 31.9353C84.6439 31.9583 84.7418 31.9163 84.7478 31.9103L85.0789 31.7413C85.5189 31.5173 85.9408 31.2373 86.3688 30.9523C87.2248 30.3733 88.0399 29.6383 88.8719 28.8323C90.5179 27.1973 92.1018 25.1623 93.7738 23.0463L93.7958 23.0173C95.5078 20.8493 98.6538 20.4803 100.822 22.1923C102.898 23.8313 103.315 26.8003 101.842 28.9513Z" fill="white"/>
<path d="M65.2848 22.4162L66.4568 24.3822C66.4568 24.3822 67.3518 26.9982 69.1428 27.4822L73.9969 25.9102L73.7538 25.5022C73.7558 25.5032 73.7588 25.5032 73.7608 25.5032C73.1388 24.5562 73.2058 22.7302 73.4248 21.2112C73.6428 19.6922 72.8549 19.6382 72.2729 20.0162C71.9369 20.2342 71.6988 20.9272 71.4258 21.6742C71.1868 21.3452 70.9308 21.0282 70.6418 20.7402L69.1588 19.2632C68.5188 18.6262 67.4938 18.5972 66.8188 19.1972L65.6168 20.2652C65.0048 20.8092 64.8658 21.7122 65.2848 22.4162Z" fill="#EFF1C5"/>
<path opacity="0.7" d="M65.2848 22.4162L66.4568 24.3822C66.4568 24.3822 67.3518 26.9982 69.1428 27.4822L73.9969 25.9102L73.7538 25.5022C73.7558 25.5032 73.7588 25.5032 73.7608 25.5032C73.1388 24.5562 73.2058 22.7302 73.4248 21.2112C73.6428 19.6922 72.8549 19.6382 72.2729 20.0162C71.9369 20.2342 71.6988 20.9272 71.4258 21.6742C71.1868 21.3452 70.9308 21.0282 70.6418 20.7402L69.1588 19.2632C68.5188 18.6262 67.4938 18.5972 66.8188 19.1972L65.6168 20.2652C65.0048 20.8092 64.8658 21.7122 65.2848 22.4162Z" fill="white"/>
<path d="M110.674 15.224C106.025 16.352 99.6379 19.005 95.3249 21.692C93.7959 22.644 93.0328 24.452 93.3928 26.217C95.3168 35.657 99.7069 48.302 104.446 56.346L126.557 47.199C126.709 43.299 121.341 30.679 115.873 18.482C114.891 16.288 113.01 14.658 110.674 15.224Z" fill="#EFF1C5"/>
<path opacity="0.8" d="M110.674 15.224C106.025 16.352 99.6379 19.005 95.3249 21.692C93.7959 22.644 93.0328 24.452 93.3928 26.217C95.3168 35.657 99.7069 48.302 104.446 56.346L126.557 47.199C126.709 43.299 121.341 30.679 115.873 18.482C114.891 16.288 113.01 14.658 110.674 15.224Z" fill="white"/>
<path opacity="0.3" d="M119.296 26.2142L114.908 24.7432C115.89 27.3102 119.441 30.5642 121.938 32.4752C121.115 30.4692 120.223 28.3722 119.296 26.2142Z" fill="#EFF1C5"/>
<path d="M109.217 5.32006C107.392 1.83906 103.443 0.0870654 98.7008 0.483065C94.7028 0.817065 91.1568 4.89907 91.5778 7.10507C91.9978 9.31107 95.3628 10.2451 95.9718 11.0111L93.1988 13.0211C91.8188 14.0221 91.5488 15.9681 92.6028 17.3081C93.7698 18.7901 95.3058 20.3381 96.2008 21.4311C103.865 21.2321 109.533 18.3081 111.575 15.4951C110.841 11.9161 111.032 8.78206 109.217 5.32006Z" fill="#EFF1C5"/>
<path opacity="0.8" d="M109.217 5.32006C107.392 1.83906 103.443 0.0870654 98.7008 0.483065C94.7028 0.817065 91.1568 4.89907 91.5778 7.10507C91.9978 9.31107 95.3628 10.2451 95.9718 11.0111L93.1988 13.0211C91.8188 14.0221 91.5488 15.9681 92.6028 17.3081C93.7698 18.7901 95.3058 20.3381 96.2008 21.4311C103.865 21.2321 109.533 18.3081 111.575 15.4951C110.841 11.9161 111.032 8.78206 109.217 5.32006Z" fill="white"/>
<path d="M105.461 7.47601C106.983 11.372 105.06 15.764 101.164 17.286C97.2678 18.808 92.8758 16.885 91.3538 12.989C89.8318 9.09401 91.7548 4.70101 95.6508 3.17901C99.5458 1.65701 103.938 3.58101 105.461 7.47601Z" fill="#21212E"/>
<path d="M170.388 97.596C170.277 94.307 170.135 94.636 170.039 91.832C169.981 90.129 169.974 88.243 169.963 86.609C169.952 85.014 168.825 83.649 167.262 83.332C165.937 83.063 164.608 82.807 163.285 82.525C161.559 82.157 159.853 81.761 158.158 81.269C156.844 80.887 155.541 80.466 154.253 80.002C152.873 79.505 151.512 78.96 150.164 78.382C148.588 77.706 147.031 76.986 145.486 76.244C143.761 75.416 142.049 74.56 140.343 73.693C133.762 62.798 133.62 55.619 126.557 47.198L111.397 54.056C111.397 54.056 122.536 73.821 130.122 82.201C134.489 87.024 141.34 89.198 147.45 90.776C151.858 91.914 156.328 92.785 160.803 93.607C162.543 93.926 164.434 94.05 165.931 95.089C167.11 95.907 167.72 97.184 168.068 98.541C168.139 98.818 168.199 99.098 168.253 99.38C168.413 100.217 170.456 99.585 170.388 97.596Z" fill="#EFF1C5"/>
<path opacity="0.8" d="M170.388 97.596C170.277 94.307 170.135 94.636 170.039 91.832C169.981 90.129 169.974 88.243 169.963 86.609C169.952 85.014 168.825 83.649 167.262 83.332C165.937 83.063 164.608 82.807 163.285 82.525C161.559 82.157 159.853 81.761 158.158 81.269C156.844 80.887 155.541 80.466 154.253 80.002C152.873 79.505 151.512 78.96 150.164 78.382C148.588 77.706 147.031 76.986 145.486 76.244C143.761 75.416 142.049 74.56 140.343 73.693C133.762 62.798 133.62 55.619 126.557 47.198L111.397 54.056C111.397 54.056 122.536 73.821 130.122 82.201C134.489 87.024 141.34 89.198 147.45 90.776C151.858 91.914 156.328 92.785 160.803 93.607C162.543 93.926 164.434 94.05 165.931 95.089C167.11 95.907 167.72 97.184 168.068 98.541C168.139 98.818 168.199 99.098 168.253 99.38C168.413 100.217 170.456 99.585 170.388 97.596Z" fill="white"/>
<path opacity="0.3" d="M162.7 82.3999C162.103 82.2689 161.497 82.1349 160.894 81.9919C160.941 85.4449 159.322 91.4089 158.727 93.2159C159.358 93.3349 159.998 93.4569 160.629 93.5769C162.384 88.8319 162.66 83.8089 162.7 82.3999Z" fill="#EFF1C5"/>
<path opacity="0.3" d="M169.961 86.6101C169.95 85.0111 168.827 83.6491 167.267 83.3291C166.953 83.2651 166.629 83.1971 166.313 83.1431C166.379 84.0831 166.963 85.1741 167.941 86.0401C168.582 86.6181 169.307 87.0021 169.973 87.1831C169.963 86.9841 169.962 86.7971 169.961 86.6101Z" fill="#EFF1C5"/>
<path d="M104.046 7.5401C104.451 9.0561 102.754 10.6501 101.396 9.3391C100.294 8.2751 98.6338 6.4931 97.2788 5.6461C95.8868 4.7751 97.7428 3.2591 99.9288 3.8471C101.97 4.3971 103.641 6.0231 104.046 7.5401Z" fill="white"/>
<path d="M104.161 55.86C103.456 56.12 104.744 57.316 104.744 57.316C104.744 57.316 118.714 52.529 127.239 47.6C127.311 46.569 126.561 46.022 126.561 46.022C126.561 46.022 116.189 51.426 104.161 55.86Z" fill="#EFF1C5"/>
<path opacity="0.5" d="M104.161 55.86C103.456 56.12 104.744 57.316 104.744 57.316C104.744 57.316 118.714 52.529 127.239 47.6C127.311 46.569 126.561 46.022 126.561 46.022C126.561 46.022 116.189 51.426 104.161 55.86Z" fill="white"/>
<path d="M114.46 14.5632C117.218 15.9562 119.814 17.4312 122.407 19.0642C123.698 19.8772 124.983 20.7121 126.249 21.6131C127.525 22.4961 128.784 23.4271 130.047 24.4751L130.521 24.8631L131.112 25.3962C131.532 25.7662 131.84 26.1071 132.149 26.4471C132.473 26.7981 132.74 27.1361 133.003 27.4731C133.276 27.8121 133.535 28.1492 133.768 28.4812C134.757 29.8092 135.563 31.1601 136.354 32.5001C137.891 35.2171 139.222 37.9301 140.32 40.8491C140.81 42.1511 140.152 43.6032 138.849 44.0942C137.871 44.4622 136.807 44.1822 136.131 43.4682L136.082 43.4142C134.073 41.2861 132.146 39.0411 130.207 36.9562C128.31 34.8771 126.295 32.7432 124.67 31.8152C122.4 30.3992 119.872 28.9931 117.36 27.6081L109.797 23.4102L109.778 23.4001C107.363 22.0601 106.492 19.0161 107.832 16.6011C109.141 14.2461 112.077 13.3632 114.46 14.5632Z" fill="#EFF1C5"/>
<path opacity="0.8" d="M114.46 14.5632C117.218 15.9562 119.814 17.4312 122.407 19.0642C123.698 19.8772 124.983 20.7121 126.249 21.6131C127.525 22.4961 128.784 23.4271 130.047 24.4751L130.521 24.8631L131.112 25.3962C131.532 25.7662 131.84 26.1071 132.149 26.4471C132.473 26.7981 132.74 27.1361 133.003 27.4731C133.276 27.8121 133.535 28.1492 133.768 28.4812C134.757 29.8092 135.563 31.1601 136.354 32.5001C137.891 35.2171 139.222 37.9301 140.32 40.8491C140.81 42.1511 140.152 43.6032 138.849 44.0942C137.871 44.4622 136.807 44.1822 136.131 43.4682L136.082 43.4142C134.073 41.2861 132.146 39.0411 130.207 36.9562C128.31 34.8771 126.295 32.7432 124.67 31.8152C122.4 30.3992 119.872 28.9931 117.36 27.6081L109.797 23.4102L109.778 23.4001C107.363 22.0601 106.492 19.0161 107.832 16.6011C109.141 14.2461 112.077 13.3632 114.46 14.5632Z" fill="white"/>
<path d="M142.733 45.7381L141.884 43.6131C141.884 43.6131 141.41 40.8891 139.717 40.1301L134.677 40.9221L134.853 41.3631C134.851 41.3621 134.849 41.3611 134.846 41.3611C135.312 42.3931 134.959 44.1871 134.505 45.6521C134.051 47.1181 134.821 47.2951 135.455 47.0131C135.821 46.8501 136.165 46.2031 136.551 45.5081C136.736 45.8711 136.939 46.2241 137.179 46.5531L138.412 48.2441C138.944 48.9731 139.952 49.1631 140.713 48.6761L142.067 47.8091C142.758 47.3681 143.038 46.4991 142.733 45.7381Z" fill="#EFF1C5"/>
<path opacity="0.8" d="M142.733 45.7381L141.884 43.6131C141.884 43.6131 141.41 40.8891 139.717 40.1301L134.677 40.9221L134.853 41.3631C134.851 41.3621 134.849 41.3611 134.846 41.3611C135.312 42.3931 134.959 44.1871 134.505 45.6521C134.051 47.1181 134.821 47.2951 135.455 47.0131C135.821 46.8501 136.165 46.2031 136.551 45.5081C136.736 45.8711 136.939 46.2241 137.179 46.5531L138.412 48.2441C138.944 48.9731 139.952 49.1631 140.713 48.6761L142.067 47.8091C142.758 47.3681 143.038 46.4991 142.733 45.7381Z" fill="white"/>
<path opacity="0.3" d="M110.236 26.0571L109.017 26.1561L101.532 44.2401C101.972 44.2701 102.376 44.2331 102.75 44.1411C102.75 44.1411 112.51 40.5041 115.464 39.1711C113.476 35.0511 110.236 26.0571 110.236 26.0571Z" fill="#EFF1C5"/>
<path d="M96.5678 30.8022C96.9848 34.0592 99.4268 40.9812 101.533 44.2402C105.188 42.9802 111.293 40.6032 114.247 39.2702C112.258 35.1512 110.164 29.4752 109.018 26.1572C105.869 26.3662 99.0058 28.9512 96.5678 30.8022Z" fill="white"/>
<path opacity="0.3" d="M104 34.713C103.592 36.078 102.154 36.853 100.79 36.444C99.4258 36.035 98.6498 34.598 99.0588 33.234C99.4678 31.869 100.905 31.094 102.269 31.503C103.633 31.911 104.408 33.348 104 34.713Z" fill="#EFF1C5"/>
<path opacity="0.6" d="M105.913 31.2682C105.779 31.7152 105.308 31.9692 104.861 31.8352C104.414 31.7012 104.16 31.2302 104.293 30.7832C104.427 30.3362 104.898 30.0822 105.345 30.2162C105.793 30.3492 106.047 30.8202 105.913 31.2682Z" fill="#EFF1C5"/>
<path opacity="0.6" d="M108.145 30.3991C108.011 30.8461 107.54 31.1001 107.093 30.9661C106.646 30.8321 106.392 30.3611 106.526 29.9141C106.66 29.4671 107.131 29.2131 107.578 29.3471C108.025 29.4811 108.279 29.9521 108.145 30.3991Z" fill="#EFF1C5"/>
<path opacity="0.5" d="M111.291 38.1872L102.044 41.8412L101.485 40.0232L110.732 36.3682L111.291 38.1872Z" fill="#EFF1C5"/>
</svg>
