<svg width="354" height="344" viewBox="0 0 354 344" fill="none" xmlns="http://www.w3.org/2000/svg">
<g opacity="0.3">
<path d="M129.952 78.6182C129.952 79.6482 129.117 80.4832 128.087 80.4832C127.057 80.4832 126.222 79.6482 126.222 78.6182C126.222 77.5882 127.057 76.7532 128.087 76.7532C129.117 76.7532 129.952 77.5882 129.952 78.6182Z" fill="#EFF1C5"/>
<path d="M1.96607 150.452C2.69674 150.452 3.28907 149.86 3.28907 149.129C3.28907 148.398 2.69674 147.806 1.96607 147.806C1.2354 147.806 0.643066 148.398 0.643066 149.129C0.643066 149.86 1.2354 150.452 1.96607 150.452Z" fill="#EFF1C5"/>
<path d="M220.054 343.226C221.1 343.226 221.947 342.379 221.947 341.333C221.947 340.288 221.1 339.44 220.054 339.44C219.009 339.44 218.161 340.288 218.161 341.333C218.161 342.379 219.009 343.226 220.054 343.226Z" fill="#EFF1C5"/>
<path d="M265.498 266.323C266.229 266.323 266.821 265.731 266.821 265C266.821 264.27 266.229 263.677 265.498 263.677C264.767 263.677 264.175 264.27 264.175 265C264.175 265.731 264.767 266.323 265.498 266.323Z" fill="#EFF1C5"/>
<path d="M353.173 28.6191C353.173 29.3501 352.581 29.9421 351.85 29.9421C351.119 29.9421 350.527 29.3501 350.527 28.6191C350.527 27.8881 351.119 27.2961 351.85 27.2961C352.581 27.2961 353.173 27.8881 353.173 28.6191Z" fill="#EFF1C5"/>
<path d="M101.754 1.96313C101.754 2.69413 101.162 3.28614 100.431 3.28614C99.7001 3.28614 99.1081 2.69413 99.1081 1.96313C99.1081 1.23213 99.7001 0.640137 100.431 0.640137C101.162 0.640137 101.754 1.23213 101.754 1.96313Z" fill="#EFF1C5"/>
<path d="M206.695 71.2661C207.426 71.2661 208.018 70.6738 208.018 69.9431C208.018 69.2124 207.426 68.6201 206.695 68.6201C205.964 68.6201 205.372 69.2124 205.372 69.9431C205.372 70.6738 205.964 71.2661 206.695 71.2661Z" fill="#EFF1C5"/>
</g>
<path d="M70.2331 71.2712C82.3336 71.2712 92.1431 61.4617 92.1431 49.3612C92.1431 37.2606 82.3336 27.4512 70.2331 27.4512C58.1325 27.4512 48.3231 37.2606 48.3231 49.3612C48.3231 61.4617 58.1325 71.2712 70.2331 71.2712Z" fill="#EFF1C5"/>
<path opacity="0.7" d="M70.2331 71.2712C82.3336 71.2712 92.1431 61.4617 92.1431 49.3612C92.1431 37.2606 82.3336 27.4512 70.2331 27.4512C58.1325 27.4512 48.3231 37.2606 48.3231 49.3612C48.3231 61.4617 58.1325 71.2712 70.2331 71.2712Z" fill="white"/>
<path opacity="0.2" d="M62.6821 32.8301C59.6111 32.8301 56.6961 33.4651 54.0411 34.6001C50.4911 38.4931 48.3251 43.6781 48.3251 49.3621C48.3251 61.4591 58.1321 71.2661 70.2291 71.2661C73.3101 71.2661 76.2461 70.6311 78.9121 69.4861C78.9121 69.4861 78.9121 69.4861 78.9121 69.4761C82.4411 65.5821 84.5961 60.4181 84.5961 54.7451C84.5971 42.6371 74.7901 32.8301 62.6821 32.8301Z" fill="#EFF1C5"/>
<path opacity="0.2" d="M60.504 38.6231C60.504 39.7291 59.6071 40.6261 58.5011 40.6261C57.3951 40.6261 56.498 39.7291 56.498 38.6231C56.498 37.5171 57.3951 36.6201 58.5011 36.6201C59.6071 36.6201 60.504 37.5171 60.504 38.6231Z" fill="#EFF1C5"/>
<path opacity="0.2" d="M84.064 36.6202C84.064 37.7262 83.1671 38.6232 82.0611 38.6232C80.9551 38.6232 80.058 37.7262 80.058 36.6202C80.058 35.5142 80.9551 34.6172 82.0611 34.6172C83.1671 34.6182 84.064 35.5142 84.064 36.6202Z" fill="#EFF1C5"/>
<path opacity="0.2" d="M80.0581 50.9013C80.0581 52.7113 78.5911 54.1793 76.7801 54.1793C74.9701 54.1793 73.5021 52.7113 73.5021 50.9013C73.5021 49.0913 74.9691 47.6233 76.7801 47.6233C78.5901 47.6233 80.0581 49.0913 80.0581 50.9013Z" fill="#EFF1C5"/>
<path opacity="0.2" d="M69.6421 60.2462C69.6421 62.6662 67.6801 64.6272 65.2611 64.6272C62.8411 64.6272 60.8801 62.6652 60.8801 60.2462C60.8801 57.8262 62.8421 55.8652 65.2611 55.8652C67.6801 55.8652 69.6421 57.8272 69.6421 60.2462Z" fill="#EFF1C5"/>
<path d="M329.907 313.704C332.347 303.37 325.948 293.015 315.615 290.575C305.281 288.135 294.926 294.534 292.486 304.867C290.046 315.201 296.445 325.556 306.778 327.996C317.112 330.436 327.467 324.037 329.907 313.704Z" fill="#EFF1C5"/>
<path opacity="0.3" d="M329.907 313.704C332.347 303.37 325.948 293.015 315.615 290.575C305.281 288.135 294.926 294.534 292.486 304.867C290.046 315.201 296.445 325.556 306.778 327.996C317.112 330.436 327.467 324.037 329.907 313.704Z" fill="white"/>
<path opacity="0.4" d="M323.333 294.339C321.584 293.808 319.721 293.527 317.795 293.527C307.176 293.527 298.566 302.137 298.566 312.755C298.566 318.773 301.325 324.134 305.656 327.663C307.405 328.194 309.268 328.475 311.195 328.475C321.814 328.475 330.423 319.865 330.423 309.247C330.423 303.23 327.664 297.858 323.333 294.339Z" fill="#EFF1C5"/>
<path d="M292.83 314.948C272.296 324.61 287.614 332.057 316.542 321.661C343.326 312.035 353.509 299.892 329.594 303.655C330.828 308.763 297.282 321.834 292.83 314.948Z" fill="#EFF1C5"/>
</svg>
