<svg width="191" height="181" viewBox="0 0 191 181" fill="none" xmlns="http://www.w3.org/2000/svg">
<path opacity="0.2" d="M171.257 34.17C171.057 41.71 170.497 47.5 169.577 51.52C168.397 56.66 166.567 60.42 164.077 62.8C161.597 65.18 158.657 66.37 155.267 66.37C150.127 66.37 146.197 63.57 143.497 57.96C143.057 57.05 142.657 56.01 142.287 54.85C136.577 59.76 131.257 65.12 126.367 70.88L121.057 77.14C123.927 80.05 127.187 82.44 130.827 84.33C137.057 87.55 145.227 89.17 155.347 89.17C157.127 89.17 158.847 89.12 160.517 89.02C166.637 79.96 171.707 70.22 175.617 60L190.467 21.28L171.257 34.17Z" fill="#21212E"/>
<path d="M37.388 86.9581C42.985 92.5551 54.89 104.46 54.89 104.46L103.901 58.2931C87.035 51.8811 54.159 70.1881 37.388 86.9581Z" fill="#21212E"/>
<path d="M98.422 147.992C92.825 142.395 80.92 130.49 80.92 130.49L127.087 81.4802C133.499 98.3452 115.193 131.221 98.422 147.992Z" fill="#21212E"/>
<path d="M165.399 37.6991L184.49 0.890137L147.681 19.9811C135.855 26.1151 124.937 33.8582 115.237 42.9892L52.49 102.059L83.32 132.889L142.39 70.1421C151.522 60.4431 159.265 49.5251 165.399 37.6991Z" fill="#EFF1C5"/>
<path opacity="0.6" d="M165.399 37.6991L184.49 0.890137L147.681 19.9811C135.855 26.1151 124.937 33.8582 115.237 42.9892L52.49 102.059L83.32 132.889L142.39 70.1421C151.522 60.4431 159.265 49.5251 165.399 37.6991Z" fill="white"/>
<path d="M126.198 72.0822C133.322 72.0822 139.097 66.3071 139.097 59.1832C139.097 52.0593 133.322 46.2842 126.198 46.2842C119.074 46.2842 113.299 52.0593 113.299 59.1832C113.299 66.3071 119.074 72.0822 126.198 72.0822Z" fill="white"/>
<path d="M126.197 67.4682C130.773 67.4682 134.482 63.7589 134.482 59.1832C134.482 54.6075 130.773 50.8982 126.197 50.8982C121.621 50.8982 117.912 54.6075 117.912 59.1832C117.912 63.7589 121.621 67.4682 126.197 67.4682Z" fill="#EFF1C5"/>
<path opacity="0.3" d="M93.746 121.816L63.564 91.6351L88.275 68.3711L117.009 97.1051L93.746 121.816Z" fill="#EFF1C5"/>
<path d="M44.22 114.616C21.615 116.455 14.127 130.922 11.573 150.155C10.271 159.964 9.693 169.888 1.456 175.63C-0.83 177.224 0.305002 180.777 3.091 180.69C33.43 179.743 47.581 164.886 49.358 158.665C48.746 162.598 47.854 165.7 46.866 168.14C45.85 170.647 48.603 172.967 50.895 171.531C59.412 166.195 70.094 156.376 70.804 140.453C64.507 131.603 44.22 114.616 44.22 114.616Z" fill="#EFF1C5"/>
<path opacity="0.2" d="M44.22 114.616C21.615 116.455 14.127 130.922 11.573 150.155C10.271 159.964 9.693 169.888 1.456 175.63C-0.83 177.224 0.305002 180.777 3.091 180.69C33.43 179.743 47.581 164.886 49.358 158.665C48.746 162.598 47.854 165.7 46.866 168.14C45.85 170.647 48.603 172.967 50.895 171.531C59.412 166.195 70.094 156.376 70.804 140.453C64.507 131.603 44.22 114.616 44.22 114.616Z" fill="white"/>
<path d="M74.276 147.3L38.08 111.104L57.363 106.933L78.448 128.017L74.276 147.3Z" fill="#EFF1C5"/>
</svg>
