<svg width="16" height="16" viewBox="0 0 16 16" fill="none" xmlns="http://www.w3.org/2000/svg">
<path d="M6.75611 0.88055C7.22695 -0.209808 8.77305 -0.209808 9.24389 0.88055C9.56759 1.63017 10.4759 1.92529 11.1784 1.5091C12.2002 0.903741 13.451 1.81251 13.191 2.97138C13.0123 3.76811 13.5737 4.54075 14.3866 4.61696C15.5691 4.72782 16.0469 6.19824 15.1554 6.98298C14.5425 7.52248 14.5425 8.47752 15.1554 9.01702C16.0469 9.80176 15.5691 11.2722 14.3866 11.383C13.5737 11.4593 13.0123 12.2319 13.191 13.0286C13.451 14.1875 12.2002 15.0963 11.1784 14.4909C10.4759 14.0747 9.56759 14.3698 9.24389 15.1194C8.77305 16.2098 7.22695 16.2098 6.75611 15.1194C6.43241 14.3698 5.52412 14.0747 4.82162 14.4909C3.7998 15.0963 2.54899 14.1875 2.80897 13.0286C2.9877 12.2319 2.42634 11.4593 1.61338 11.383C0.430893 11.2722 -0.0468752 9.80176 0.844619 9.01702C1.45752 8.47752 1.45752 7.52248 0.844619 6.98298C-0.0468752 6.19824 0.430894 4.72782 1.61338 4.61696C2.42634 4.54075 2.9877 3.76811 2.80897 2.97138C2.54899 1.81251 3.7998 0.903741 4.82162 1.5091C5.52412 1.92529 6.43241 1.63017 6.75611 0.88055Z" fill="#EFF1C5"/>
</svg>
